<?xml version="1.0" encoding="UTF-8" standalone="no"?>
<!DOCTYPE svg PUBLIC "-//W3C//DTD SVG 1.1//EN" "http://www.w3.org/Graphics/SVG/1.1/DTD/svg11.dtd">
<svg version="1.1" xmlns="http://www.w3.org/2000/svg" xmlns:xlink="http://www.w3.org/1999/xlink" preserveAspectRatio="xMidYMid meet" viewBox="0 0 128 128" width="128" height="128"><defs><path d="M128 112C128 120.84 120.84 128 112 128C89.6 128 38.4 128 16 128C7.16 128 0 120.84 0 112C0 89.6 0 38.4 0 16C0 7.16 7.16 0 16 0C38.4 0 89.6 0 112 0C120.84 0 128 7.16 128 16C128 38.4 128 89.6 128 112Z" id="allA7OJnl"></path><path d="M128 112C128 120.84 120.84 128 112 128C89.6 128 38.4 128 16 128C7.16 128 0 120.84 0 112C0 89.6 0 38.4 0 16C0 7.16 7.16 0 16 0C38.4 0 89.6 0 112 0C120.84 0 128 7.16 128 16C128 38.4 128 89.6 128 112Z" id="bwYt4nYT0"></path><path d="M43.48 104.76L7.14 104.76L7.14 71.43L43.48 71.43L43.48 104.76Z" id="b3qgOb7Zw"></path><path d="M43.48 104.76L7.14 104.76L7.14 71.43L43.48 71.43L43.48 104.76Z" id="abCBfZJi7"></path><path d="M68.94 100L63.94 91.99L58.93 100L53.29 100L61.13 87.5L53.29 75L58.93 75L63.94 83.01L68.94 75L74.71 75L66.74 87.5L74.2 100L68.94 100Z" id="btvEFdwRd"></path><path d="M111.8 100L106.79 91.99L101.79 100L96.14 100L103.99 87.5L96.14 75L101.79 75L106.79 83.01L111.8 75L117.57 75L109.6 87.5L117.06 100L111.8 100Z" id="j1gV6i7v43"></path><path d="M25.18 50.38L20.17 42.37L15.17 50.38L9.52 50.38L17.37 37.88L9.52 25.38L15.17 25.38L20.17 33.39L25.18 25.38L30.95 25.38L22.98 37.88L30.44 50.38L25.18 50.38Z" id="aleSKKJzn"></path><path d="M43.48 53.95L121.45 53.95L121.45 20.62L43.48 20.62L43.48 53.95Z" id="a1axtFBIqC"></path><path d="M43.48 53.95L121.45 53.95L121.45 20.62L43.48 20.62L43.48 53.95Z" id="e81mQWy9jS"></path><path d="M25.18 50.38L20.17 42.37L15.17 50.38L9.52 50.38L17.37 37.88L9.52 25.38L15.17 25.38L20.17 33.39L25.18 25.38L30.95 25.38L22.98 37.88L30.44 50.38L25.18 50.38Z" id="d8VOpNr2bh"></path></defs><g><g><g><use xlink:href="#allA7OJnl" opacity="1" fill="#737370" fill-opacity="1"></use><g><use xlink:href="#allA7OJnl" opacity="1" fill-opacity="0" stroke="#000000" stroke-width="1" stroke-opacity="0"></use></g></g><g><use xlink:href="#bwYt4nYT0" opacity="1" fill="#000000" fill-opacity="0"></use><g><use xlink:href="#bwYt4nYT0" opacity="1" fill-opacity="0" stroke="#000000" stroke-width="1" stroke-opacity="0"></use></g></g><g><use xlink:href="#b3qgOb7Zw" opacity="1" fill="#ebeded" fill-opacity="1"></use><g><use xlink:href="#b3qgOb7Zw" opacity="1" fill-opacity="0" stroke="#000000" stroke-width="1" stroke-opacity="0"></use></g></g><g><use xlink:href="#abCBfZJi7" opacity="1" fill="#000000" fill-opacity="0"></use><g><use xlink:href="#abCBfZJi7" opacity="1" fill-opacity="0" stroke="#000000" stroke-width="1" stroke-opacity="0"></use></g></g><g><use xlink:href="#btvEFdwRd" opacity="1" fill="#ebeded" fill-opacity="1"></use><g><use xlink:href="#btvEFdwRd" opacity="1" fill-opacity="0" stroke="#000000" stroke-width="1" stroke-opacity="0"></use></g></g><g><use xlink:href="#j1gV6i7v43" opacity="1" fill="#ebeded" fill-opacity="1"></use><g><use xlink:href="#j1gV6i7v43" opacity="1" fill-opacity="0" stroke="#000000" stroke-width="1" stroke-opacity="0"></use></g></g><g><use xlink:href="#aleSKKJzn" opacity="1" fill="#000000" fill-opacity="0"></use><g><use xlink:href="#aleSKKJzn" opacity="1" fill-opacity="0" stroke="#000000" stroke-width="0" stroke-opacity="1"></use></g></g><g><use xlink:href="#a1axtFBIqC" opacity="1" fill="#ebeded" fill-opacity="1"></use><g><use xlink:href="#a1axtFBIqC" opacity="1" fill-opacity="0" stroke="#000000" stroke-width="1" stroke-opacity="0"></use></g></g><g><use xlink:href="#e81mQWy9jS" opacity="1" fill="#000000" fill-opacity="0"></use><g><use xlink:href="#e81mQWy9jS" opacity="1" fill-opacity="0" stroke="#000000" stroke-width="1" stroke-opacity="0"></use></g></g><g><use xlink:href="#d8VOpNr2bh" opacity="1" fill="#ebeded" fill-opacity="1"></use><g><use xlink:href="#d8VOpNr2bh" opacity="1" fill-opacity="0" stroke="#000000" stroke-width="1" stroke-opacity="0"></use></g></g></g></g></svg>