<?xml version="1.0" encoding="UTF-8" standalone="no"?>
<!DOCTYPE svg PUBLIC "-//W3C//DTD SVG 1.1//EN" "http://www.w3.org/Graphics/SVG/1.1/DTD/svg11.dtd">
<svg version="1.1" xmlns="http://www.w3.org/2000/svg" xmlns:xlink="http://www.w3.org/1999/xlink" preserveAspectRatio="xMidYMid meet" viewBox="0 0 128 128" width="128" height="128"><defs><path d="M118 16.5C118 36.8 118 83.2 118 103.5C118 111.51 111.51 118 103.5 118C83.2 118 36.8 118 16.5 118C8.49 118 2 111.51 2 103.5C2 83.2 2 36.8 2 16.5C2 8.49 8.49 2 16.5 2C36.8 2 83.2 2 103.5 2C111.51 2 118 8.49 118 16.5Z" id="fr7TgVVs8"></path><path d="M45.48 68.67L45.48 97.24L2 97.24L2 68.67L45.48 68.67Z" id="d1sxBberjl"></path><path d="M79.77 102.6L74.51 102.6L69.51 94.59L64.5 102.6L58.86 102.6L66.7 90.1L58.86 77.6L64.5 77.6L69.51 85.61L74.51 77.6L80.28 77.6L72.31 90.1L79.77 102.6Z" id="a19hYQEbmc"></path><path d="M110.73 95.45L105.47 95.45L100.46 87.44L95.46 95.45L89.81 95.45L97.66 82.95L89.81 70.45L95.46 70.45L100.46 78.46L105.47 70.45L111.24 70.45L103.27 82.95L110.73 95.45Z" id="afMyUsOIg"></path><path d="M33.94 51.99L28.68 51.99L23.67 43.98L18.67 51.99L13.02 51.99L20.87 39.49L13.02 26.99L18.67 26.99L23.67 35L28.68 26.99L34.45 26.99L26.48 39.49L33.94 51.99Z" id="ibP3AB39a"></path><path d="M118 25.2L118 53.77L45.48 53.77L45.48 25.2L118 25.2Z" id="b3b1A11P2R"></path></defs><g><g><g><use xlink:href="#fr7TgVVs8" opacity="1" fill="#737370" fill-opacity="1"></use></g><g><use xlink:href="#d1sxBberjl" opacity="1" fill="#ebeded" fill-opacity="1"></use><g><use xlink:href="#d1sxBberjl" opacity="1" fill-opacity="0" stroke="#000000" stroke-width="1" stroke-opacity="0"></use></g></g><g><use xlink:href="#a19hYQEbmc" opacity="1" fill="#82d1f5" fill-opacity="1"></use><g><use xlink:href="#a19hYQEbmc" opacity="1" fill-opacity="0" stroke="#000000" stroke-width="1" stroke-opacity="0"></use></g></g><g><use xlink:href="#afMyUsOIg" opacity="1" fill="#82d1f5" fill-opacity="1"></use><g><use xlink:href="#afMyUsOIg" opacity="1" fill-opacity="0" stroke="#000000" stroke-width="1" stroke-opacity="0"></use></g></g><g><use xlink:href="#ibP3AB39a" opacity="1" fill="#82d1f5" fill-opacity="1"></use><g><use xlink:href="#ibP3AB39a" opacity="1" fill-opacity="0" stroke="#000000" stroke-width="1" stroke-opacity="0"></use></g></g><g><use xlink:href="#b3b1A11P2R" opacity="1" fill="#ebeded" fill-opacity="1"></use><g><use xlink:href="#b3b1A11P2R" opacity="1" fill-opacity="0" stroke="#000000" stroke-width="1" stroke-opacity="0"></use></g></g></g></g></svg>
