<?xml version="1.0" encoding="UTF-8" standalone="no"?>
<!DOCTYPE svg PUBLIC "-//W3C//DTD SVG 1.1//EN" "http://www.w3.org/Graphics/SVG/1.1/DTD/svg11.dtd">
<svg version="1.1" xmlns="http://www.w3.org/2000/svg" xmlns:xlink="http://www.w3.org/1999/xlink" preserveAspectRatio="xMidYMid meet" viewBox="0 0 640 640" width="640" height="640"><defs><path d="M128 16C128 38.4 128 89.6 128 112C128 120.84 120.84 128 112 128C89.6 128 38.4 128 16 128C7.16 128 0 120.84 0 112C0 89.6 0 38.4 0 16C0 7.16 7.16 0 16 0C38.4 0 89.6 0 112 0C120.84 0 128 7.16 128 16Z" id="e1eEoCgsg8"></path><path d="M43.48 71.43L43.48 104.76L7.14 104.76L7.14 71.43L43.48 71.43Z" id="a2Alwf6l3m"></path><path d="M74.2 100L68.94 100L63.94 91.99L58.93 100L53.29 100L61.13 87.5L53.29 75L58.93 75L63.94 83.01L68.94 75L74.71 75L66.74 87.5L74.2 100Z" id="b1tavnNahm"></path><path d="M74.2 100L68.94 100L63.94 91.99L58.93 100L53.29 100L61.13 87.5L53.29 75L58.93 75L63.94 83.01L68.94 75L74.71 75L66.74 87.5L74.2 100Z" id="dJHjUAjpP"></path><path d="M117.06 100L111.8 100L106.79 91.99L101.79 100L96.14 100L103.99 87.5L96.14 75L101.79 75L106.79 83.01L111.8 75L117.57 75L109.6 87.5L117.06 100Z" id="aYzSdphZE"></path><path d="M117.06 100L111.8 100L106.79 91.99L101.79 100L96.14 100L103.99 87.5L96.14 75L101.79 75L106.79 83.01L111.8 75L117.57 75L109.6 87.5L117.06 100Z" id="bZk70y9yD"></path><path d="M43.48 20.62L43.48 53.95L121.45 53.95L121.45 20.62L43.48 20.62Z" id="bzyE4xtLS"></path><path d="M30.44 50.38L25.18 50.38L20.17 42.37L15.17 50.38L9.52 50.38L17.37 37.88L9.52 25.38L15.17 25.38L20.17 33.39L25.18 25.38L30.95 25.38L22.98 37.88L30.44 50.38Z" id="c9bxjHaxJ"></path><path d="M30.44 50.38L25.18 50.38L20.17 42.37L15.17 50.38L9.52 50.38L17.37 37.88L9.52 25.38L15.17 25.38L20.17 33.39L25.18 25.38L30.95 25.38L22.98 37.88L30.44 50.38Z" id="b3GERaWW1"></path></defs><g><g><g><use xlink:href="#e1eEoCgsg8" opacity="1" fill="#737370" fill-opacity="1"></use><g><use xlink:href="#e1eEoCgsg8" opacity="1" fill-opacity="0" stroke="#000000" stroke-width="1" stroke-opacity="0"></use></g></g><g><use xlink:href="#a2Alwf6l3m" opacity="1" fill="#ebeded" fill-opacity="1"></use><g><use xlink:href="#a2Alwf6l3m" opacity="1" fill-opacity="0" stroke="#000000" stroke-width="1" stroke-opacity="0"></use></g></g><g><use xlink:href="#b1tavnNahm" opacity="1" fill="#82d1f5" fill-opacity="1"></use><g><use xlink:href="#b1tavnNahm" opacity="1" fill-opacity="0" stroke="#000000" stroke-width="1" stroke-opacity="0"></use></g></g><g><use xlink:href="#dJHjUAjpP" opacity="1" fill="#000000" fill-opacity="0"></use><g><use xlink:href="#dJHjUAjpP" opacity="1" fill-opacity="0" stroke="#82d1f5" stroke-width="0" stroke-opacity="1"></use></g></g><g><use xlink:href="#aYzSdphZE" opacity="1" fill="#82d1f5" fill-opacity="1"></use><g><use xlink:href="#aYzSdphZE" opacity="1" fill-opacity="0" stroke="#000000" stroke-width="1" stroke-opacity="0"></use></g></g><g><use xlink:href="#bZk70y9yD" opacity="1" fill="#000000" fill-opacity="0"></use><g><use xlink:href="#bZk70y9yD" opacity="1" fill-opacity="0" stroke="#82d1f5" stroke-width="0" stroke-opacity="1"></use></g></g><g><use xlink:href="#bzyE4xtLS" opacity="1" fill="#ebeded" fill-opacity="1"></use><g><use xlink:href="#bzyE4xtLS" opacity="1" fill-opacity="0" stroke="#000000" stroke-width="1" stroke-opacity="0"></use></g></g><g><use xlink:href="#c9bxjHaxJ" opacity="1" fill="#82d1f5" fill-opacity="1"></use><g><use xlink:href="#c9bxjHaxJ" opacity="1" fill-opacity="0" stroke="#000000" stroke-width="1" stroke-opacity="0"></use></g></g><g><use xlink:href="#b3GERaWW1" opacity="1" fill="#000000" fill-opacity="0"></use><g><use xlink:href="#b3GERaWW1" opacity="1" fill-opacity="0" stroke="#82d1f5" stroke-width="0" stroke-opacity="1"></use></g></g></g></g></svg>