<?xml version="1.0" encoding="UTF-8" standalone="no"?>
<!DOCTYPE svg PUBLIC "-//W3C//DTD SVG 1.1//EN" "http://www.w3.org/Graphics/SVG/1.1/DTD/svg11.dtd">
<svg version="1.1" xmlns="http://www.w3.org/2000/svg" xmlns:xlink="http://www.w3.org/1999/xlink" preserveAspectRatio="xMidYMid meet" viewBox="0 0 128 128" width="128" height="128"><defs><path d="M122 20.5C122 40.8 122 87.2 122 107.5C122 115.51 115.51 122 107.5 122C87.2 122 40.8 122 20.5 122C12.49 122 6 115.51 6 107.5C6 87.2 6 40.8 6 20.5C6 12.49 12.49 6 20.5 6C40.8 6 87.2 6 107.5 6C115.51 6 122 12.49 122 20.5Z" id="b1fudBma1T"></path><path d="M49.48 72.67L49.48 101.24L6 101.24L6 72.67L49.48 72.67Z" id="cixkp6ft8"></path><path d="M81.34 99.45L76.08 99.45L71.08 91.44L66.07 99.45L60.43 99.45L68.27 86.95L60.43 74.45L66.07 74.45L71.08 82.46L76.08 74.45L81.85 74.45L73.88 86.95L81.34 99.45Z" id="dCOH9qJmG"></path><path d="M114.73 99.45L109.47 99.45L104.46 91.44L99.46 99.45L93.81 99.45L101.66 86.95L93.81 74.45L99.46 74.45L104.46 82.46L109.47 74.45L115.24 74.45L107.27 86.95L114.73 99.45Z" id="aDSZbqSQ8"></path><path d="M37.94 55.99L32.68 55.99L27.67 47.98L22.67 55.99L17.02 55.99L24.87 43.49L17.02 30.99L22.67 30.99L27.67 39L32.68 30.99L38.45 30.99L30.48 43.49L37.94 55.99Z" id="dj6682v0O"></path><path d="M122 29.2L122 57.77L49.48 57.77L49.48 29.2L122 29.2Z" id="b2DJRdYNSG"></path><path d="M120 -2.88L120 -2.88L120 0L120 0L120 -2.88Z" id="aZK1CJOhW"></path></defs><g><g><g><use xlink:href="#b1fudBma1T" opacity="1" fill="#737370" fill-opacity="1"></use></g><g><use xlink:href="#cixkp6ft8" opacity="1" fill="#ebeded" fill-opacity="1"></use><g><use xlink:href="#cixkp6ft8" opacity="1" fill-opacity="0" stroke="#000000" stroke-width="1" stroke-opacity="0"></use></g></g><g><use xlink:href="#dCOH9qJmG" opacity="1" fill="#82d1f5" fill-opacity="1"></use><g><use xlink:href="#dCOH9qJmG" opacity="1" fill-opacity="0" stroke="#000000" stroke-width="1" stroke-opacity="0"></use></g></g><g><use xlink:href="#aDSZbqSQ8" opacity="1" fill="#82d1f5" fill-opacity="1"></use><g><use xlink:href="#aDSZbqSQ8" opacity="1" fill-opacity="0" stroke="#000000" stroke-width="1" stroke-opacity="0"></use></g></g><g><use xlink:href="#dj6682v0O" opacity="1" fill="#82d1f5" fill-opacity="1"></use><g><use xlink:href="#dj6682v0O" opacity="1" fill-opacity="0" stroke="#000000" stroke-width="1" stroke-opacity="0"></use></g></g><g><use xlink:href="#b2DJRdYNSG" opacity="1" fill="#ebeded" fill-opacity="1"></use><g><use xlink:href="#b2DJRdYNSG" opacity="1" fill-opacity="0" stroke="#000000" stroke-width="1" stroke-opacity="0"></use></g></g><g><use xlink:href="#aZK1CJOhW" opacity="1" fill="#3d9dcb" fill-opacity="1"></use></g></g></g></svg>
